<?xml version="1.0" encoding="utf-8"?><!DOCTYPE svg PUBLIC "-//W3C//DTD SVG 1.1//EN" "http://www.w3.org/Graphics/SVG/1.1/DTD/svg11.dtd"><svg xmlns="http://www.w3.org/2000/svg" xmlns:xlink="http://www.w3.org/1999/xlink"><symbol viewBox="0 0 17 16" id="295-volume-high"><path d="M13.907 14.407a.75.75 0 0 1-.53-1.281c1.369-1.369 2.123-3.19 2.123-5.127s-.754-3.757-2.123-5.127a.75.75 0 1 1 1.061-1.061c1.653 1.653 2.563 3.85 2.563 6.187s-.91 4.534-2.563 6.187a.748.748 0 0 1-.53.22zm-2.664-1.414a.75.75 0 0 1-.53-1.281 5.256 5.256 0 0 0 0-7.425.75.75 0 1 1 1.061-1.061c1.275 1.275 1.977 2.97 1.977 4.773s-.702 3.498-1.977 4.773a.748.748 0 0 1-.53.22zm-2.665-1.415a.75.75 0 0 1-.53-1.281 3.254 3.254 0 0 0 0-4.596.75.75 0 1 1 1.061-1.061 4.756 4.756 0 0 1 0 6.718.748.748 0 0 1-.53.22zM6.5 15a.504.504 0 0 1-.354-.146L2.292 11H.499a.5.5 0 0 1-.5-.5v-5a.5.5 0 0 1 .5-.5h1.793l3.854-3.854A.499.499 0 0 1 7 1.5v13a.5.5 0 0 1-.5.5z"/></symbol><symbol viewBox="0 0 16 16" id="296-volume-medium"><path d="M11.243 12.993a.75.75 0 0 1-.53-1.281 5.256 5.256 0 0 0 0-7.425.75.75 0 1 1 1.061-1.061c1.275 1.275 1.977 2.97 1.977 4.773s-.702 3.498-1.977 4.773a.748.748 0 0 1-.53.22zm-2.665-1.415a.75.75 0 0 1-.53-1.281 3.254 3.254 0 0 0 0-4.596.75.75 0 1 1 1.061-1.061 4.756 4.756 0 0 1 0 6.718.748.748 0 0 1-.53.22zM6.5 15a.504.504 0 0 1-.354-.146L2.292 11H.499a.5.5 0 0 1-.5-.5v-5a.5.5 0 0 1 .5-.5h1.793l3.854-3.854A.499.499 0 0 1 7 1.5v13a.5.5 0 0 1-.5.5z"/></symbol><symbol viewBox="0 0 16 16" id="297-volume-low"><path d="M8.578 11.578a.75.75 0 0 1-.53-1.281 3.254 3.254 0 0 0 0-4.596.75.75 0 1 1 1.061-1.061 4.756 4.756 0 0 1 0 6.718.748.748 0 0 1-.53.22zM6.5 15a.504.504 0 0 1-.354-.146L2.292 11H.499a.5.5 0 0 1-.5-.5v-5a.5.5 0 0 1 .5-.5h1.793l3.854-3.854A.499.499 0 0 1 7 1.5v13a.5.5 0 0 1-.5.5z"/></symbol><symbol viewBox="0 0 16 16" id="298-volume-mute"><path d="M6.5 15a.504.504 0 0 1-.354-.146L2.292 11H.499a.5.5 0 0 1-.5-.5v-5a.5.5 0 0 1 .5-.5h1.793l3.854-3.854A.499.499 0 0 1 7 1.5v13a.5.5 0 0 1-.5.5z"/></symbol><symbol viewBox="0 0 16 16" id="299-volume-mute2"><path d="M15 9.674V11h-1.326L12 9.326 10.326 11H9V9.674L10.674 8 9 6.326V5h1.326L12 6.674 13.674 5H15v1.326L13.326 8 15 9.674zM6.5 15a.504.504 0 0 1-.354-.146L2.292 11H.499a.5.5 0 0 1-.5-.5v-5a.5.5 0 0 1 .5-.5h1.793l3.854-3.854A.499.499 0 0 1 7 1.5v13a.5.5 0 0 1-.5.5z"/></symbol></svg>